# xmcd
#
# Track frame offsets:
#	150
#	15541
#	31190
#	44606
#	57639
#	71100
#	86054
#	106743
#	120598
#	134095
#	149795
#	172324
#	189420
#	208420
#	222194
#
# Disc length: 3271
#
# Revision: 1
# Processed by: cddbd v1.5.1PL0 Copyright (c) Steve Scherf et al.
# Submitted via: dBpowerAMP V4.0
# Normalized: r0:TSWAP
#
DISCID=f40cc50f
DTITLE=Various Artist - 70s Soul Sessions CD2
DYEAR=1900
DGENRE=Soul
TTITLE0=Barry White - You're The First, The Last, My Everything
TTITLE1=Al Wilson - Show and Tell
TTITLE2=Al Green - Sha la la (Make Me Happy)
TTITLE3=The Meters - Hand Clappin' Song
TTITLE4=Alvin Cash - Doin' The Ali Shuffle
TTITLE5=The Jones Girls - Will You Be There
TTITLE6=Leroy Hutson - All Because Of You
TTITLE7=Love Unlimited - Under The Influence Of Love
TTITLE8=The Three Degrees - When Will I See You Again
TTITLE9=Allen Toussaint - From a Whisper To a Scream
TTITLE10=The Impressions - First Impressions
TTITLE11=The Notations - Super People
TTITLE12=Aaron Neville - Hercules
TTITLE13=The O'jays - Backstabbers
TTITLE14=The Chi-lites - Have You Seen Her
EXTD=2 Cd Compilation (30 Original 70's Soul Party Grooves)
EXTT0=
EXTT1=
EXTT2=
EXTT3=
EXTT4=
EXTT5=
EXTT6=
EXTT7=
EXTT8=
EXTT9=
EXTT10=
EXTT11=
EXTT12=
EXTT13=
EXTT14=
PLAYORDER=
